# Blender v3.6.5 OBJ File: 'Level3.blend'
# www.blender.org
mtllib Rock1.mtl
o Rock1
v -0.523697 0.204472 1.178164
v -0.500396 -0.048072 -0.908975
v 0.506445 0.967677 -1.013446
v 0.785341 1.159483 -0.072508
v -0.002372 1.448411 0.150173
v 0.435884 0.020903 1.262424
v 1.009496 -0.006783 0.196062
v -0.902296 -0.016704 0.456886
v 0.600219 -0.003589 -0.841531
v 1.068558 0.218595 0.744491
v 0.901900 0.444475 -0.763373
v 0.678066 0.802315 1.110426
v -1.061383 0.453293 0.326255
v -1.072526 0.735536 -0.400511
v -0.300295 0.387063 -1.296485
v -0.089962 0.765184 1.301073
v -0.763145 1.130230 0.419732
v -0.699597 1.117261 -0.751280
v -0.070240 1.145171 -1.097573
vn 0.4909 -0.8232 0.2854
vn 0.0116 -0.9996 0.0267
vn 0.0064 -0.9996 0.0290
vn 0.0060 -0.9996 0.0292
vn -0.1114 -0.1298 0.9853
vn -0.9296 -0.3483 -0.1210
vn 0.2734 0.9312 -0.2412
vn 0.3194 0.9055 -0.2793
vn -0.1660 0.9603 -0.2243
vn -0.3952 0.9181 -0.0316
vn -0.7359 0.6754 -0.0474
vn -0.1819 0.8516 0.4917
vn 0.0862 0.8538 0.5134
vn 0.4018 0.8659 0.2979
vn 0.8215 0.4598 -0.3372
vn 0.1992 0.1917 -0.9610
vn -0.4629 0.3537 -0.8128
vn -0.9112 0.3792 0.1612
vn -0.6598 0.3667 0.6559
vn 0.8686 0.4471 0.2138
vn 0.4072 -0.1204 -0.9054
vn 0.4074 -0.1167 -0.9058
vn 0.4072 -0.1247 -0.9048
vn 0.4073 -0.1162 -0.9059
vn 0.0722 -0.6816 -0.7281
vn -0.7341 0.1000 -0.6716
vn -0.7786 -0.1779 -0.6018
vn -0.8516 -0.4661 -0.2399
vn -0.7788 0.2646 0.5688
vn -0.8553 -0.1518 0.4955
vn 0.2341 0.1152 0.9654
vn 0.6420 -0.0502 0.7651
vn 0.9707 0.2288 -0.0730
vn 0.9940 0.0050 -0.1091
vn 0.8106 -0.4897 -0.3212
vn 0.0416 -0.9989 -0.0195
vn 0.0121 -0.9996 0.0265
vn -0.2059 -0.9000 0.3841
usemtl Rock
s 1
f 10//1 6//1 7//1
f 6//2 2//3 7//4
f 1//5 6//5 16//5
f 8//6 13//6 14//6
f 4//7 19//7 5//7
f 4//8 3//8 19//8
f 19//9 18//9 5//9
f 18//10 17//10 5//10
f 18//11 14//11 17//11
f 17//12 16//12 5//12
f 16//13 12//13 5//13
f 5//14 12//14 4//14
f 11//15 3//15 4//15
f 15//16 19//16 3//16
f 15//17 18//17 19//17
f 13//18 17//18 14//18
f 1//19 16//19 17//19
f 10//20 4//20 12//20
f 11//21 15//22 3//23
f 11//21 9//24 15//22
f 9//25 2//25 15//25
f 15//26 14//26 18//26
f 15//27 2//27 14//27
f 2//28 8//28 14//28
f 13//29 1//29 17//29
f 13//30 8//30 1//30
f 16//31 6//31 12//31
f 6//32 10//32 12//32
f 10//33 11//33 4//33
f 10//34 7//34 11//34
f 7//35 9//35 11//35
f 7//36 2//36 9//36
f 2//3 6//2 8//37
f 6//38 1//38 8//38
