# Blender v3.6.2 OBJ File: 'Level1.blend'
# www.blender.org
mtllib shield.mtl
o shield_Crystal1
v -0.109012 -0.378179 0.065416
v -0.116071 -0.206853 0.127685
v -0.229016 -0.255743 0.065708
v -0.116071 0.206853 0.127685
v -0.109012 0.378179 0.065416
v -0.229016 0.255743 0.065708
v -0.109012 -0.378179 -0.065416
v -0.229016 -0.255743 -0.065708
v -0.116071 -0.206853 -0.127685
v -0.109012 0.378179 -0.065416
v -0.116071 0.206853 -0.127685
v -0.229016 0.255743 -0.065708
v 0.109012 -0.378179 0.065416
v 0.229016 -0.255743 0.065708
v 0.116071 -0.206853 0.127685
v 0.109012 0.378179 0.065416
v 0.116071 0.206853 0.127685
v 0.229016 0.255743 0.065708
v 0.109012 -0.378179 -0.065416
v 0.116071 -0.206853 -0.127685
v 0.229016 -0.255743 -0.065708
v 0.109012 0.378179 -0.065416
v 0.229016 0.255743 -0.065708
v 0.116071 0.206853 -0.127685
vt 0.176051 0.012366
vt 0.196765 0.990756
vt 0.803235 0.990756
vt 0.197545 0.198677
vt 0.803235 0.009244
vt 0.802455 0.198677
vt 0.196765 0.009244
vt 0.018714 0.197790
vt 0.802455 0.801323
vt 0.981286 0.802210
vt 0.802455 0.801323
vt 0.197545 0.801323
vt 0.197545 0.198677
vt 0.803235 0.009244
vt 0.802455 0.198677
vt 0.196765 0.009244
vt 0.018714 0.197790
vt 0.803235 0.990756
vt 0.834085 0.981286
vt 0.176051 0.197394
vt 0.823949 0.802606
vt 0.176051 0.802606
vt 0.176051 0.197394
vt 0.823949 0.802606
vt 0.176051 0.802606
vt 0.981286 0.197790
vt 0.018714 0.802210
vt 0.981286 0.197790
vt 0.176051 0.012366
vt 0.196765 0.990756
vt 0.197545 0.801323
vt 0.018714 0.802210
vt 0.014611 0.792079
vt 0.985389 0.207921
vt 0.014611 0.207921
vt 0.985389 0.792079
vt 0.823949 0.193316
vt 0.176051 0.193316
vt 0.985389 0.207921
vt 0.014611 0.792079
vt 0.985389 0.792079
vt 0.176051 0.987634
vt 0.823949 0.012366
vt 0.823949 0.197394
vt 0.823949 0.197394
vt 0.823949 0.012366
vt 0.823949 0.987634
vt 0.014611 0.207921
vt 0.823949 0.823949
vn 0.8142 -0.3337 0.4750
vn 0.2211 0.1512 0.9635
vn 0.2211 -0.1512 0.9635
vn -0.3195 -0.7999 -0.5080
vn 0.2211 -0.1512 -0.9635
vn 0.3195 -0.7999 -0.5080
vn -0.2211 -0.1512 -0.9635
vn -0.8142 -0.3337 -0.4750
vn 0.3195 -0.7999 0.5080
vn -0.3195 0.7999 0.5080
vn 0.3195 0.7999 0.5080
vn 0.3195 0.7999 -0.5080
vn -0.2211 0.1512 -0.9635
vn -0.3195 0.7999 -0.5080
vn 0.2211 0.1512 -0.9635
vn 0.8142 0.3337 -0.4750
vn -0.2211 0.1512 0.9635
vn -0.8142 0.3337 0.4750
vn -0.2211 -0.1512 0.9635
vn -0.8142 0.3337 -0.4750
vn 0.8142 0.3337 0.4750
vn 0.8142 -0.3337 -0.4750
vn -0.3195 -0.7999 0.5080
vn -0.8142 -0.3337 0.4750
usemtl Purple
s 1
f 14/1/1 17/2/2 15/3/3
f 7/4/4 20/5/5 19/6/6
f 9/7/7 7/4/4 8/8/8
f 15/3/3 13/9/9 14/10/1
f 5/11/10 17/2/2 16/12/11
f 22/13/12 11/14/13 10/15/14
f 24/16/15 22/13/12 23/17/16
f 4/18/17 5/11/10 6/19/18
f 15/20/3 4/21/17 2/22/19
f 9/23/7 24/24/15 20/25/5
f 10/15/14 11/14/13 12/26/20
f 16/12/11 17/2/2 18/27/21
f 19/6/6 20/5/5 21/28/22
f 8/29/8 11/14/13 9/7/7
f 13/9/9 2/30/19 1/31/23
f 8/8/8 1/31/23 3/32/24
f 3/33/24 12/34/20 8/35/8
f 10/15/14 6/36/18 5/11/10
f 20/5/5 23/37/16 21/38/22
f 19/6/6 14/10/1 13/9/9
f 16/12/11 23/17/16 22/13/12
f 19/6/6 1/31/23 7/4/4
f 21/39/22 18/40/21 14/41/1
f 1/31/23 2/30/19 3/32/24
f 2/30/19 6/19/18 3/42/24
f 10/15/14 16/12/11 22/13/12
f 14/1/1 18/43/21 17/2/2
f 7/4/4 9/7/7 20/5/5
f 5/11/10 4/18/17 17/2/2
f 22/13/12 24/16/15 11/14/13
f 15/20/3 17/44/2 4/21/17
f 9/23/7 11/45/13 24/24/15
f 8/29/8 12/46/20 11/14/13
f 13/9/9 15/3/3 2/30/19
f 8/8/8 7/4/4 1/31/23
f 3/33/24 6/47/18 12/34/20
f 10/15/14 12/26/20 6/36/18
f 20/5/5 24/16/15 23/37/16
f 19/6/6 21/28/22 14/10/1
f 16/12/11 18/27/21 23/17/16
f 19/6/6 13/9/9 1/31/23
f 21/39/22 23/48/16 18/40/21
f 2/30/19 4/49/17 6/19/18
f 10/15/14 5/11/10 16/12/11
