# Blender v3.6.2 OBJ File: 'DavilaZoleda_Level2.blend'
# www.blender.org
mtllib Fence_Middle_Cube.mtl
o Fence_Middle_Cube
v -1.000000 0.418710 0.025538
v -1.000000 0.455424 0.062252
v -1.000000 0.455424 -0.062252
v -1.000000 0.418710 -0.025538
v -1.000000 0.688394 0.062252
v -1.000000 0.725108 0.025538
v -1.000000 0.725108 -0.025538
v -1.000000 0.688394 -0.062252
v -0.323538 0.000000 0.132177
v -0.676461 0.000000 0.132177
v -0.676461 0.000000 -0.132177
v -0.323538 0.000000 -0.132177
v -0.597020 0.000000 0.132177
v -0.402979 0.000000 0.132177
v -0.500000 0.000000 0.132177
v -0.402979 0.000000 -0.132177
v -0.597020 0.000000 -0.132177
v -0.500000 0.000000 -0.132177
v -0.285055 1.058689 0.132177
v -0.251845 1.054300 0.098967
v -0.251845 0.000000 0.098967
v -0.285055 0.000000 0.132177
v -0.285055 0.000000 -0.132177
v -0.251845 0.000000 -0.098967
v -0.285055 1.058689 -0.132177
v -0.251845 1.054300 -0.098967
v -0.714945 1.058689 -0.132177
v -0.748155 1.054300 -0.098967
v -0.748155 0.000000 -0.098967
v -0.714945 0.000000 -0.132177
v -0.714945 1.058689 0.132177
v -0.748155 1.054300 0.098967
v -0.714945 0.000000 0.132177
v -0.748155 0.000000 0.098967
v -0.690422 1.127210 0.132177
v -0.713594 1.159982 0.098967
v -0.286406 1.159982 0.098967
v -0.309578 1.127210 0.132177
v -0.309578 1.127210 -0.132177
v -0.286406 1.159982 -0.098967
v -0.713594 1.159982 -0.098967
v -0.690422 1.127210 -0.132177
v -0.402979 1.186524 0.132177
v -0.392676 1.222759 0.098967
v -0.607323 1.222759 0.098967
v -0.597020 1.186524 0.132177
v -0.500000 1.251127 0.098967
v -0.500000 1.204057 0.132177
v -0.597020 1.186524 -0.132177
v -0.607323 1.222759 -0.098967
v -0.392676 1.222759 -0.098967
v -0.402979 1.186524 -0.132177
v -0.500000 1.204057 -0.132177
v -0.500000 1.251127 -0.098967
v 1.000000 0.418710 0.025538
v 1.000000 0.455424 0.062252
v 1.000000 0.455424 -0.062252
v 1.000000 0.418710 -0.025538
v 1.000000 0.688394 0.062252
v 1.000000 0.725108 0.025538
v 1.000000 0.725108 -0.025538
v 1.000000 0.688394 -0.062252
v 0.000000 0.418710 -0.025538
v 0.000000 0.455424 -0.062252
v 0.000000 0.455424 0.062252
v 0.000000 0.418710 0.025538
v 0.000000 0.688394 -0.062252
v 0.000000 0.725108 -0.025538
v 0.000000 0.725108 0.025538
v 0.000000 0.688394 0.062252
v 0.323538 0.000000 0.132177
v 0.676461 0.000000 0.132177
v 0.676461 0.000000 -0.132177
v 0.323538 0.000000 -0.132177
v 0.597020 0.000000 0.132177
v 0.402979 0.000000 0.132177
v 0.500000 0.000000 0.132177
v 0.402979 0.000000 -0.132177
v 0.597020 0.000000 -0.132177
v 0.500000 0.000000 -0.132177
v 0.285055 1.058689 0.132177
v 0.251845 1.054300 0.098967
v 0.251845 0.000000 0.098967
v 0.285055 0.000000 0.132177
v 0.285055 0.000000 -0.132177
v 0.251845 0.000000 -0.098967
v 0.285055 1.058689 -0.132177
v 0.251845 1.054300 -0.098967
v 0.714945 1.058689 -0.132177
v 0.748155 1.054300 -0.098967
v 0.748155 0.000000 -0.098967
v 0.714945 0.000000 -0.132177
v 0.714945 1.058689 0.132177
v 0.748155 1.054300 0.098967
v 0.714945 0.000000 0.132177
v 0.748155 0.000000 0.098967
v 0.690422 1.127210 0.132177
v 0.713594 1.159982 0.098967
v 0.286406 1.159982 0.098967
v 0.309578 1.127210 0.132177
v 0.309578 1.127210 -0.132177
v 0.286406 1.159982 -0.098967
v 0.713594 1.159982 -0.098967
v 0.690422 1.127210 -0.132177
v 0.402979 1.186524 0.132177
v 0.392676 1.222759 0.098967
v 0.607323 1.222759 0.098967
v 0.597020 1.186524 0.132177
v 0.500000 1.251127 0.098967
v 0.500000 1.204057 0.132177
v 0.597020 1.186524 -0.132177
v 0.607323 1.222759 -0.098967
v 0.392676 1.222759 -0.098967
v 0.402979 1.186524 -0.132177
v 0.500000 1.204057 -0.132177
v 0.500000 1.251127 -0.098967
vn 0.9505 0.3108 0.0000
vn 0.9875 0.1574 0.0000
vn -0.9505 0.3108 0.0000
vn -0.9875 0.1574 0.0000
vn 0.0000 -1.0000 0.0000
vn -0.0000 0.0000 -1.0000
vn -0.0000 0.0000 1.0000
vn -1.0000 0.0000 0.0000
vn -0.5086 0.8610 0.0000
vn -0.3857 0.9226 0.0000
vn 0.3857 0.9226 0.0000
vn 0.5086 0.8610 0.0000
vn -0.0000 1.0000 0.0000
vn -0.7071 0.0000 -0.7071
vn -0.7065 0.1042 -0.7000
vn -0.7093 0.1423 -0.6904
vn -0.7071 0.0000 0.7071
vn -0.7065 0.1042 0.7000
vn 0.7065 0.1042 -0.7000
vn 0.7071 0.0000 -0.7071
vn 0.7093 0.1423 -0.6904
vn 0.7065 0.1042 0.7000
vn 0.7071 0.0000 0.7071
vn -0.5494 0.3766 0.7459
vn -0.4991 0.4245 0.7554
vn -0.5494 0.3766 -0.7459
vn 0.5494 0.3766 0.7459
vn 0.4991 0.4245 0.7554
vn 0.5494 0.3766 -0.7459
vn 0.4991 0.4245 -0.7554
vn 0.2307 0.6080 -0.7597
vn -0.0000 0.5985 -0.8011
vn -0.0000 0.5765 -0.8171
vn -0.2307 0.6080 -0.7597
vn -0.2366 0.6140 -0.7530
vn 0.2307 0.6080 0.7597
vn -0.0000 0.5985 0.8011
vn 0.2366 0.6140 0.7530
vn -0.2307 0.6080 0.7597
vn -0.0000 0.5765 0.8171
vn 0.2366 0.6140 -0.7530
vn -0.2366 0.6140 0.7530
vn -0.4991 0.4245 -0.7554
vn 1.0000 0.0000 0.0000
vn 0.7093 0.1423 0.6904
vn -0.7093 0.1423 0.6904
vn 0.0000 0.7071 -0.7071
vn 0.0000 0.7071 0.7071
vn 0.0000 -0.7071 0.7071
vn 0.0000 -0.7071 -0.7071
usemtl Wood.001
s 1
f 37//1 26//2 40//1
f 36//3 28//4 32//4
f 24//5 21//5 9//5
f 12//6 25//6 23//6
f 9//7 19//7 38//7
f 31//7 10//7 35//7
f 32//4 29//8 34//8
f 29//5 30//5 11//5
f 35//7 13//7 46//7
f 43//7 15//7 14//7
f 14//5 12//5 9//5
f 41//9 45//10 50//10
f 38//7 14//7 9//7
f 10//5 17//5 13//5
f 51//11 37//12 40//12
f 17//6 42//6 49//6
f 11//6 27//6 42//6
f 52//6 18//6 53//6
f 51//11 47//13 44//11
f 18//6 49//6 53//6
f 14//5 18//5 16//5
f 15//5 17//5 18//5
f 54//13 45//10 47//13
f 15//7 46//7 13//7
f 16//6 39//6 12//6
f 30//14 28//15 27//16
f 33//17 32//18 34//17
f 26//19 23//20 25//21
f 20//22 22//23 21//23
f 32//18 35//24 36//25
f 28//15 42//26 27//16
f 38//27 20//22 37//28
f 26//19 39//29 40//30
f 51//31 53//32 54//33
f 50//34 53//32 49//35
f 44//36 48//37 43//38
f 45//39 48//37 47//40
f 52//41 40//30 39//29
f 43//38 37//28 44//36
f 36//25 46//42 45//39
f 49//35 41//43 50//34
f 24//44 20//2 21//44
f 88//4 99//3 102//3
f 90//2 98//1 94//2
f 86//5 85//5 74//5
f 74//6 87//6 101//6
f 81//7 71//7 100//7
f 72//7 93//7 97//7
f 91//44 94//2 96//44
f 91//5 96//5 72//5
f 75//7 97//7 108//7
f 77//7 105//7 76//7
f 74//5 76//5 71//5
f 107//11 103//12 112//11
f 100//7 76//7 105//7
f 79//5 72//5 75//5
f 99//9 113//10 102//9
f 79//6 104//6 73//6
f 73//6 89//6 92//6
f 114//6 80//6 78//6
f 109//13 113//10 106//10
f 111//6 80//6 115//6
f 80//5 76//5 78//5
f 79//5 77//5 80//5
f 107//11 116//13 109//13
f 77//7 108//7 110//7
f 101//6 78//6 74//6
f 90//19 92//20 89//21
f 95//23 94//22 93//45
f 88//15 85//14 86//14
f 84//17 82//18 83//17
f 97//27 94//22 98//28
f 90//19 104//29 103//30
f 100//24 82//18 81//46
f 101//26 88//15 102//43
f 115//32 113//34 116//33
f 112//31 115//32 116//33
f 106//39 110//37 109//40
f 110//37 107//36 109//40
f 102//43 114//35 101//26
f 105//42 99//25 100//24
f 108//38 98//28 107//36
f 111//41 103//30 104//29
f 82//4 86//8 83//8
f 37//1 20//2 26//2
f 36//3 41//3 28//4
f 22//5 9//5 21//5
f 9//5 12//5 24//5
f 12//5 23//5 24//5
f 12//6 39//6 25//6
f 9//7 22//7 19//7
f 31//7 33//7 10//7
f 32//4 28//4 29//8
f 11//5 10//5 29//5
f 10//5 33//5 34//5
f 29//5 10//5 34//5
f 35//7 10//7 13//7
f 43//7 48//7 15//7
f 14//5 16//5 12//5
f 41//9 36//9 45//10
f 38//7 43//7 14//7
f 10//5 11//5 17//5
f 51//11 44//11 37//12
f 17//6 11//6 42//6
f 11//6 30//6 27//6
f 52//6 16//6 18//6
f 51//11 54//13 47//13
f 18//6 17//6 49//6
f 14//5 15//5 18//5
f 15//5 13//5 17//5
f 54//13 50//10 45//10
f 15//7 48//7 46//7
f 16//6 52//6 39//6
f 30//14 29//14 28//15
f 33//17 31//46 32//18
f 26//19 24//20 23//20
f 20//22 19//45 22//23
f 32//18 31//46 35//24
f 28//15 41//43 42//26
f 38//27 19//45 20//22
f 26//19 25//21 39//29
f 51//31 52//41 53//32
f 50//34 54//33 53//32
f 44//36 47//40 48//37
f 45//39 46//42 48//37
f 52//41 51//31 40//30
f 43//38 38//27 37//28
f 36//25 35//24 46//42
f 49//35 42//26 41//43
f 24//44 26//2 20//2
f 88//4 82//4 99//3
f 90//2 103//1 98//1
f 74//5 71//5 86//5
f 71//5 84//5 83//5
f 86//5 71//5 83//5
f 74//6 85//6 87//6
f 81//7 84//7 71//7
f 72//7 95//7 93//7
f 91//44 90//2 94//2
f 95//5 72//5 96//5
f 72//5 73//5 91//5
f 73//5 92//5 91//5
f 75//7 72//7 97//7
f 77//7 110//7 105//7
f 74//5 78//5 76//5
f 107//11 98//12 103//12
f 100//7 71//7 76//7
f 79//5 73//5 72//5
f 99//9 106//10 113//10
f 79//6 111//6 104//6
f 73//6 104//6 89//6
f 114//6 115//6 80//6
f 109//13 116//13 113//10
f 111//6 79//6 80//6
f 80//5 77//5 76//5
f 79//5 75//5 77//5
f 107//11 112//11 116//13
f 77//7 75//7 108//7
f 101//6 114//6 78//6
f 90//19 91//20 92//20
f 95//23 96//23 94//22
f 88//15 87//16 85//14
f 84//17 81//46 82//18
f 97//27 93//45 94//22
f 90//19 89//21 104//29
f 100//24 99//25 82//18
f 101//26 87//16 88//15
f 115//32 114//35 113//34
f 112//31 111//41 115//32
f 106//39 105//42 110//37
f 110//37 108//38 107//36
f 102//43 113//34 114//35
f 105//42 106//39 99//25
f 108//38 97//27 98//28
f 111//41 112//31 103//30
f 82//4 88//4 86//8
usemtl Wood_Light.001
f 67//6 3//6 8//6
f 65//7 5//7 2//7
f 69//13 7//13 6//13
f 68//47 8//47 7//47
f 6//48 70//48 69//48
f 2//49 66//49 65//49
f 4//50 64//50 63//50
f 63//5 1//5 4//5
f 57//6 67//6 62//6
f 59//7 65//7 56//7
f 61//13 69//13 60//13
f 62//47 68//47 61//47
f 70//48 60//48 69//48
f 66//49 56//49 65//49
f 64//50 58//50 63//50
f 55//5 63//5 58//5
f 5//8 6//8 7//8
f 55//44 58//44 57//44
f 67//6 64//6 3//6
f 65//7 70//7 5//7
f 69//13 68//13 7//13
f 68//47 67//47 8//47
f 6//48 5//48 70//48
f 2//49 1//49 66//49
f 4//50 3//50 64//50
f 63//5 66//5 1//5
f 57//6 64//6 67//6
f 59//7 70//7 65//7
f 61//13 68//13 69//13
f 62//47 67//47 68//47
f 70//48 59//48 60//48
f 66//49 55//49 56//49
f 64//50 57//50 58//50
f 55//5 66//5 63//5
f 7//8 8//8 5//8
f 8//8 3//8 5//8
f 3//8 4//8 1//8
f 1//8 2//8 3//8
f 2//8 5//8 3//8
f 57//44 62//44 59//44
f 62//44 61//44 59//44
f 61//44 60//44 59//44
f 59//44 56//44 57//44
f 56//44 55//44 57//44
