# Blender v3.6.2 OBJ File: 'DavilaZoleda_LevelDesign.blend'
# www.blender.org
mtllib Platform_TopLeft_Cube.mtl
o Platform_TopLeft_Cube.058
v -0.827402 0.142918 0.634615
v -0.819409 0.655999 0.569834
v -0.819409 0.655999 -0.569834
v -0.827402 0.142918 -0.634615
v 0.031823 0.258727 1.692305
v 0.031823 0.684040 1.527640
v -0.624874 0.655999 1.333654
v -0.607889 0.258727 1.480767
v 0.031823 0.972458 -0.654703
v -0.624874 0.908365 -0.569834
v -0.624874 0.908365 0.569834
v 0.031823 0.972458 0.654703
v 0.031823 -0.130839 1.638736
v -0.569288 -0.130839 1.433894
v -0.785990 -0.188744 0.614526
v -0.785990 -0.188744 -0.614526
v -0.569288 -0.130839 -1.433895
v 0.031823 -0.130839 -1.638736
v 0.999997 -0.191306 1.638736
v 0.999997 0.972458 -0.654703
v 0.999997 0.972458 0.654703
v 0.999997 0.684040 1.527640
v 0.999997 0.137793 1.692305
v -0.607889 0.258727 -1.480768
v -0.624874 0.655999 -1.333654
v 0.031823 0.684040 -1.527641
v 0.031823 0.258727 -1.692305
v 0.999997 -0.191306 -1.638736
v 0.999997 0.137793 -1.692305
v 0.999997 0.684040 -1.527640
v 0.999997 0.305057 -1.745874
v 0.031823 0.365523 -1.745874
v -0.646489 0.365523 -1.527641
v 0.999997 0.305057 1.745874
v -0.646489 0.365523 1.527640
v 0.031823 0.365523 1.745874
v -0.868815 0.307619 -0.654703
v -0.868815 0.307619 0.654703
v -0.856463 0.474767 0.633486
v -0.844112 0.670019 0.000000
v -0.856463 0.474767 -0.633486
v -0.854842 0.085014 0.000000
v 0.031823 0.496253 1.691316
v -0.361693 0.677029 1.479144
v -0.641085 0.489243 1.479144
v -0.361693 0.258727 1.639421
v -0.361693 0.956435 -0.633486
v -0.635681 0.940412 0.000000
v -0.361693 0.956435 0.633486
v 0.031823 0.999998 0.000000
v -0.361693 -0.130839 1.587526
v -0.813079 -0.217696 0.000000
v -0.361693 -0.130839 -1.587526
v 0.999997 0.999998 0.000000
v 0.999997 0.481136 1.691316
v -0.641085 0.489243 -1.479144
v -0.361693 0.677029 -1.479144
v 0.031823 0.496253 -1.691316
v -0.361693 0.258727 -1.639420
v 0.999997 0.481136 -1.691315
v -0.785443 0.351047 1.200289
v -0.746073 0.641979 1.045706
v -0.746073 0.813227 0.527400
v -0.746073 0.813227 -0.527400
v -0.704727 -0.145315 -1.126631
v 0.031823 0.864301 1.200289
v -0.614067 0.813227 1.045706
v -0.704727 -0.145315 1.126631
v -0.746073 0.641979 -1.045706
v -0.745085 0.229775 -1.163460
v 0.031823 0.159038 1.652128
v -0.578938 0.159038 1.445613
v -0.796344 0.057705 0.619548
v -0.796344 0.057705 -0.619548
v -0.614067 0.813227 -1.045706
v 0.031823 0.864301 -1.200289
v 0.999997 0.864301 1.200289
v 0.999997 0.053221 1.652128
v -0.578938 0.159038 -1.445613
v 0.031823 0.159038 -1.652128
v 0.511404 -0.145956 -1.638736
v 0.511404 -0.145956 1.638736
v 0.511404 0.972458 -0.654703
v 0.511404 0.972458 0.654703
v 0.511404 0.684039 1.527640
v 0.511404 0.228493 1.692305
v 0.511404 0.684039 -1.527640
v 0.511404 0.228493 -1.692305
v -0.896605 0.278667 0.000000
v -0.361693 0.365523 1.691316
v -0.361693 0.365523 -1.691315
v -0.745085 0.229775 1.163460
v -0.785443 0.351047 -1.200289
v 0.511404 0.350407 1.745874
v 0.511404 0.350407 -1.745874
v 0.999997 0.181906 -1.732482
v 0.031823 0.287724 -1.732482
v -0.636839 0.287724 -1.515922
v -0.636839 0.287724 1.515922
v 0.031823 0.287724 1.732482
v -0.858462 0.186391 -0.649681
v -0.858462 0.186391 0.649681
v 0.999997 0.864301 -1.200289
v 0.999997 0.053221 -1.652128
v 0.999997 0.181907 1.732482
v -0.883482 0.471034 0.000000
v -0.361693 0.494501 1.638273
v -0.361692 0.999998 0.000000
v -0.361693 0.494501 -1.638273
v -0.775600 0.482119 1.161643
v -0.765757 0.838764 0.000000
v -0.361693 0.851532 1.161643
v -0.775600 0.482119 -1.161643
v -0.361693 0.159038 1.600500
v -0.823519 0.007039 0.000000
v -0.361693 0.851532 -1.161643
v -0.361693 0.159038 -1.600500
v 0.511404 0.999998 0.000000
v 0.511404 0.492474 1.691315
v 0.511404 0.492474 -1.691315
v -0.706189 0.761486 0.889103
v -0.706189 0.761486 -0.889103
v -0.714817 0.133704 1.135838
v -0.714817 0.133704 -1.135839
v 0.511404 0.864300 -1.200289
v 0.511404 0.864300 1.200289
v 0.511404 0.132583 1.652128
v 0.511404 0.132583 -1.652128
v -0.886165 0.135725 0.000000
v -0.361693 0.287724 1.678342
v -0.361693 0.287724 -1.678342
v -0.775353 0.262391 1.191082
v -0.775353 0.262391 -1.191082
v 0.511404 0.261269 1.732482
v 0.511404 0.261269 -1.732482
v 0.031824 -0.999998 1.562632
v -0.564020 -0.999998 1.388374
v -0.773950 -0.999998 0.594611
v -0.773950 -0.999998 -0.594611
v -0.564020 -0.999998 -1.388374
v 0.031824 -0.999998 -1.562632
v 0.999999 -0.999998 1.562631
v 0.999999 -0.999998 -1.562632
v -0.361691 -0.999998 1.562632
v 0.511406 -0.999998 1.562632
v -0.695132 -0.999998 1.090357
v -0.800286 -0.999998 0.000000
v -0.695132 -0.999998 -1.090357
v -0.361691 -0.999998 -1.562632
v 0.511405 -0.999998 -1.562632
vn -0.9329 -0.3528 0.0725
vn -0.9167 -0.3462 0.1995
vn -0.9093 -0.3663 -0.1975
vn -0.9329 -0.3528 -0.0725
vn -0.1237 -0.3709 0.9204
vn -0.0236 -0.3737 0.9272
vn -0.8350 -0.3821 0.3959
vn -0.5147 -0.3118 0.7987
vn -0.0027 -0.0872 0.9962
vn -0.5947 -0.0230 0.8036
vn -0.0025 -0.0461 0.9989
vn -0.1289 -0.0443 0.9907
vn -0.9143 -0.0267 0.4043
vn -0.5941 -0.0522 0.8027
vn -0.9133 -0.0464 0.4047
vn -0.9989 -0.0159 0.0448
vn -0.9873 -0.0178 0.1582
vn -0.9989 -0.0159 -0.0448
vn -0.9861 -0.0447 0.1603
vn -0.9979 -0.0464 0.0462
vn -0.9873 -0.0178 -0.1582
vn -0.9980 -0.0429 -0.0473
vn -0.9861 -0.0447 -0.1603
vn -0.5947 -0.0230 -0.8036
vn -0.9143 -0.0267 -0.4043
vn -0.1286 -0.0865 -0.9879
vn -0.9134 -0.0468 -0.4045
vn -0.5941 -0.0522 -0.8027
vn -0.0027 -0.0872 -0.9962
vn -0.1299 -0.0458 -0.9905
vn -0.0015 -0.0480 -0.9988
vn -0.0082 -0.0888 0.9960
vn -0.0051 -0.0547 0.9985
vn -0.0695 -0.4281 0.9011
vn -0.5283 -0.4147 -0.7409
vn -0.8350 -0.3821 -0.3959
vn -0.0236 -0.3737 -0.9272
vn -0.1237 -0.3709 -0.9204
vn -0.0082 -0.0888 -0.9960
vn -0.0051 -0.0547 -0.9985
vn -0.0715 -0.3854 -0.9200
vn -0.1286 -0.0865 0.9879
vn 1.0000 0.0000 0.0000
vn 0.0000 -1.0000 0.0000
vn -0.9256 -0.3718 0.0710
vn -0.9093 -0.3663 0.1975
vn -0.9167 -0.3462 -0.1995
vn -0.9256 -0.3718 -0.0710
vn -0.1213 -0.3610 0.9246
vn -0.0213 -0.3863 0.9221
vn -0.8362 -0.3778 0.3977
vn -0.5283 -0.4147 0.7409
vn 0.0000 -0.0888 0.9961
vn -0.6520 -0.0436 0.7570
vn -0.0015 -0.0480 0.9988
vn -0.1299 -0.0458 0.9905
vn -0.9150 -0.0274 0.4025
vn -0.5801 -0.0364 0.8137
vn -0.9134 -0.0468 0.4045
vn -0.9989 -0.0163 0.0442
vn -0.9874 -0.0185 0.1570
vn -0.9989 -0.0163 -0.0442
vn -0.9860 -0.0410 0.1617
vn -0.9980 -0.0429 0.0473
vn -0.9874 -0.0185 -0.1570
vn -0.9979 -0.0464 -0.0462
vn -0.9860 -0.0410 -0.1617
vn -0.6520 -0.0436 -0.7570
vn -0.9150 -0.0274 -0.4025
vn 0.0000 -0.0286 -0.9996
vn -0.9133 -0.0464 -0.4047
vn -0.5801 -0.0364 -0.8137
vn 0.0000 -0.0888 -0.9961
vn -0.1289 -0.0443 -0.9907
vn -0.0025 -0.0461 -0.9989
vn 0.0000 -0.0937 0.9956
vn -0.0078 -0.0480 0.9988
vn -0.0715 -0.3854 0.9200
vn -0.5147 -0.3118 -0.7987
vn -0.8362 -0.3778 -0.3977
vn -0.0213 -0.3863 -0.9221
vn -0.1213 -0.3610 -0.9246
vn 0.0000 -0.0937 -0.9956
vn -0.0078 -0.0480 -0.9988
vn -0.0695 -0.4281 -0.9011
vn 0.0000 -0.0286 0.9996
vn -0.8477 -0.5236 0.0844
vn -0.7564 -0.6163 0.2190
vn -0.9761 0.2137 0.0404
vn -0.9559 0.2498 0.1547
vn -0.8770 0.4526 0.1614
vn -0.8999 0.4332 0.0497
vn -0.9799 0.1939 -0.0472
vn -0.8999 0.4332 -0.0497
vn -0.8640 0.4814 -0.1473
vn -0.9559 0.2498 -0.1547
vn -0.7976 -0.5978 -0.0806
vn -0.7564 -0.6163 -0.2190
vn -0.0800 -0.7993 0.5955
vn -0.0447 -0.8101 0.5846
vn -0.1040 0.6535 0.7498
vn 0.0000 0.6571 0.7538
vn 0.0000 0.8760 0.4824
vn -0.0748 0.8735 0.4810
vn -0.4169 0.6202 0.6645
vn -0.3300 0.8337 0.4428
vn -0.7578 0.5842 0.2905
vn -0.8511 0.3897 0.3518
vn -0.2923 -0.8419 0.4537
vn -0.5521 -0.7743 0.3093
vn -0.0429 0.9982 -0.0420
vn 0.0000 0.9991 -0.0420
vn 0.0000 0.9809 -0.1945
vn -0.0504 0.9796 -0.1946
vn -0.1950 0.9785 -0.0673
vn -0.2219 0.9552 -0.1960
vn -0.6454 0.7430 -0.1774
vn -0.6285 0.7758 -0.0556
vn -0.2121 0.9755 0.0589
vn -0.6285 0.7758 0.0556
vn -0.6753 0.7201 0.1593
vn -0.2219 0.9552 0.1960
vn -0.0429 0.9982 0.0420
vn -0.0509 0.9796 0.1942
vn 0.0000 0.9809 0.1945
vn 0.0000 0.9991 0.0420
vn 0.0146 0.6278 0.7782
vn -0.1240 -0.6681 0.7336
vn -0.2923 -0.8419 -0.4537
vn -0.4932 -0.8254 -0.2747
vn -0.4169 0.6202 -0.6645
vn -0.8506 0.4025 -0.3384
vn -0.7578 0.5842 -0.2905
vn -0.3188 0.8306 -0.4565
vn -0.1040 0.6536 -0.7497
vn -0.0748 0.8735 -0.4810
vn 0.0000 0.8760 -0.4824
vn 0.0000 0.6571 -0.7538
vn -0.0803 -0.8083 -0.5833
vn -0.0488 -0.7739 -0.6314
vn -0.1240 -0.6682 -0.7336
vn -0.0000 0.6496 -0.7603
vn -0.0138 -0.1486 -0.9888
vn 0.0275 0.2959 -0.9548
vn -0.1269 0.3820 -0.9154
vn 0.0113 0.3585 -0.9335
vn -0.0053 -0.1696 -0.9855
vn -0.1354 -0.1681 -0.9764
vn -0.4693 0.3358 -0.8167
vn -0.4992 -0.1893 -0.8456
vn -0.9042 -0.1711 -0.3914
vn -0.9072 0.1873 -0.3768
vn 0.0275 0.2959 0.9548
vn -0.0176 -0.1081 0.9940
vn -0.4703 0.3398 0.8145
vn -0.9072 0.1873 0.3768
vn -0.9042 -0.1711 0.3914
vn -0.4932 -0.1431 0.8581
vn -0.1269 0.3820 0.9154
vn -0.1354 -0.1681 0.9764
vn -0.0053 -0.1696 0.9855
vn 0.0030 0.3851 0.9229
vn -0.9962 0.0785 -0.0388
vn -0.9832 0.1154 -0.1411
vn -0.9824 -0.0907 -0.1635
vn -0.9952 -0.0869 -0.0461
vn -0.9962 0.0785 0.0388
vn -0.9952 -0.0869 0.0461
vn -0.9788 -0.1280 0.1598
vn -0.9845 0.0917 0.1495
vn -0.7976 -0.5978 0.0806
vn -0.6268 -0.7526 0.2019
vn -0.9799 0.1939 0.0472
vn -0.9500 0.2782 0.1416
vn -0.8640 0.4814 0.1473
vn -0.9057 0.4205 0.0542
vn -0.9761 0.2137 -0.0404
vn -0.9057 0.4205 -0.0542
vn -0.8770 0.4526 -0.1614
vn -0.9500 0.2782 -0.1416
vn -0.8477 -0.5236 -0.0844
vn -0.6268 -0.7526 -0.2019
vn -0.0803 -0.8083 0.5833
vn -0.0488 -0.7739 0.6314
vn -0.1040 0.6536 0.7497
vn 0.0051 0.6496 0.7603
vn -0.0755 0.8739 0.4803
vn -0.4040 0.6011 0.6895
vn -0.3188 0.8306 0.4565
vn -0.7657 0.5903 0.2554
vn -0.8506 0.4025 0.3384
vn -0.3326 -0.7563 0.5634
vn -0.4932 -0.8254 0.2747
vn 0.0000 0.9976 -0.0686
vn -0.0509 0.9796 -0.1942
vn -0.2121 0.9755 -0.0589
vn -0.2319 0.9541 -0.1895
vn -0.6753 0.7201 -0.1593
vn -0.6146 0.7865 -0.0610
vn -0.1950 0.9785 0.0673
vn -0.6146 0.7865 0.0610
vn -0.6454 0.7430 0.1774
vn -0.2319 0.9541 0.1895
vn 0.0000 0.9976 0.0686
vn -0.0504 0.9796 0.1946
vn -0.0000 0.6496 0.7603
vn -0.1249 -0.7688 0.6272
vn -0.3326 -0.7563 -0.5634
vn -0.5521 -0.7743 -0.3093
vn -0.4040 0.6011 -0.6895
vn -0.8511 0.3897 -0.3518
vn -0.7657 0.5903 -0.2554
vn -0.3300 0.8337 -0.4428
vn -0.1040 0.6535 -0.7498
vn -0.0755 0.8739 -0.4803
vn 0.0051 0.6496 -0.7603
vn -0.0800 -0.7993 -0.5955
vn -0.0447 -0.8101 -0.5846
vn -0.1249 -0.7688 -0.6272
vn 0.0146 0.6278 -0.7783
vn -0.0176 -0.1081 -0.9940
vn 0.0083 0.3585 -0.9335
vn -0.1254 0.3773 -0.9176
vn 0.0030 0.3851 -0.9229
vn -0.0082 -0.1486 -0.9889
vn -0.1345 -0.1630 -0.9774
vn -0.4703 0.3398 -0.8145
vn -0.4932 -0.1431 -0.8581
vn -0.9061 -0.1444 -0.3976
vn -0.9071 0.1802 -0.3803
vn 0.0083 0.3585 0.9335
vn -0.0138 -0.1486 0.9888
vn -0.4693 0.3359 0.8167
vn -0.9071 0.1802 0.3803
vn -0.9061 -0.1444 0.3976
vn -0.4992 -0.1893 0.8456
vn -0.1254 0.3773 0.9175
vn -0.1345 -0.1630 0.9774
vn -0.0082 -0.1486 0.9889
vn 0.0113 0.3585 0.9335
vn -0.9968 0.0680 -0.0421
vn -0.9845 0.0917 -0.1495
vn -0.9788 -0.1280 -0.1598
vn -0.9962 -0.0728 -0.0482
vn -0.9968 0.0680 0.0421
vn -0.9962 -0.0728 0.0482
vn -0.9824 -0.0907 0.1635
vn -0.9832 0.1154 0.1411
usemtl LightBrown.002
s off
f 42//1 73//1 1//1
f 1//2 123//2 92//2
f 4//3 124//3 74//3
f 74//4 42//4 4//4
f 46//5 71//5 5//5
f 71//6 86//6 5//6
f 92//7 72//7 8//7
f 8//8 114//8 46//8
f 136//9 82//9 13//9
f 14//10 144//10 51//10
f 13//11 127//11 71//11
f 13//12 114//12 51//12
f 68//13 137//13 14//13
f 51//14 72//14 14//14
f 14//15 123//15 68//15
f 52//16 138//16 15//16
f 15//17 146//17 68//17
f 139//18 52//18 16//18
f 68//19 73//19 15//19
f 15//20 115//20 52//20
f 148//21 16//21 65//21
f 16//22 115//22 74//22
f 74//23 65//23 16//23
f 149//24 17//24 53//24
f 140//25 65//25 17//25
f 141//26 53//26 18//26
f 17//27 124//27 79//27
f 79//28 53//28 17//28
f 81//29 141//29 18//29
f 18//30 117//30 80//30
f 18//31 128//31 81//31
f 145//32 19//32 82//32
f 78//33 82//33 19//33
f 23//34 127//34 78//34
f 24//35 117//35 79//35
f 79//36 70//36 24//36
f 88//37 80//37 27//37
f 80//38 59//38 27//38
f 28//39 150//39 81//39
f 81//40 104//40 28//40
f 29//41 128//41 88//41
f 51//42 136//42 13//42
f 142//43 28//43 19//43
f 145//44 136//44 138//44
f 29//43 78//43 104//43
f 104//43 19//43 28//43
f 42//45 115//45 73//45
f 1//46 73//46 123//46
f 4//47 70//47 124//47
f 74//48 115//48 42//48
f 46//49 114//49 71//49
f 71//50 127//50 86//50
f 92//51 123//51 72//51
f 8//52 72//52 114//52
f 136//53 145//53 82//53
f 14//54 137//54 144//54
f 13//55 82//55 127//55
f 13//56 71//56 114//56
f 68//57 146//57 137//57
f 51//58 114//58 72//58
f 14//59 72//59 123//59
f 52//60 147//60 138//60
f 15//61 138//61 146//61
f 139//62 147//62 52//62
f 68//63 123//63 73//63
f 15//64 73//64 115//64
f 148//65 139//65 16//65
f 16//66 52//66 115//66
f 74//67 124//67 65//67
f 149//68 140//68 17//68
f 140//69 148//69 65//69
f 141//70 149//70 53//70
f 17//71 65//71 124//71
f 79//72 117//72 53//72
f 81//73 150//73 141//73
f 18//74 53//74 117//74
f 18//75 80//75 128//75
f 145//76 142//76 19//76
f 78//77 127//77 82//77
f 23//78 86//78 127//78
f 24//79 59//79 117//79
f 79//80 124//80 70//80
f 88//81 128//81 80//81
f 80//82 117//82 59//82
f 28//83 143//83 150//83
f 81//84 128//84 104//84
f 29//85 104//85 128//85
f 51//86 144//86 136//86
f 142//43 143//43 28//43
f 136//44 144//44 137//44
f 137//44 146//44 136//44
f 146//44 138//44 136//44
f 138//44 147//44 145//44
f 147//44 139//44 150//44
f 139//44 148//44 141//44
f 148//44 140//44 141//44
f 140//44 149//44 141//44
f 150//44 143//44 147//44
f 143//44 142//44 147//44
f 141//44 150//44 139//44
f 142//44 145//44 147//44
f 29//43 23//43 78//43
f 104//43 78//43 19//43
usemtl Green.001
f 1//87 129//87 42//87
f 92//88 102//88 1//88
f 2//89 106//89 39//89
f 39//90 62//90 2//90
f 2//91 121//91 63//91
f 63//92 40//92 2//92
f 3//93 106//93 40//93
f 40//94 64//94 3//94
f 3//95 122//95 69//95
f 69//96 41//96 3//96
f 4//97 129//97 101//97
f 101//98 70//98 4//98
f 5//99 130//99 46//99
f 5//100 134//100 100//100
f 6//101 107//101 43//101
f 43//102 85//102 6//102
f 6//103 126//103 66//103
f 66//104 44//104 6//104
f 45//105 44//105 7//105
f 7//106 112//106 67//106
f 67//107 62//107 7//107
f 7//108 110//108 45//108
f 46//109 99//109 8//109
f 8//110 132//110 92//110
f 47//111 50//111 9//111
f 50//112 83//112 9//112
f 83//113 76//113 9//113
f 9//114 116//114 47//114
f 10//115 108//115 47//115
f 47//116 75//116 10//116
f 10//117 122//117 64//117
f 64//118 48//118 10//118
f 11//119 108//119 48//119
f 48//120 63//120 11//120
f 11//121 121//121 67//121
f 67//122 49//122 11//122
f 50//123 49//123 12//123
f 12//124 112//124 66//124
f 66//125 84//125 12//125
f 84//126 50//126 12//126
f 103//113 83//113 20//113
f 83//112 54//112 20//112
f 54//126 84//126 21//126
f 84//125 77//125 21//125
f 22//103 126//103 85//103
f 22//127 119//127 55//127
f 105//128 86//128 23//128
f 98//129 59//129 24//129
f 24//130 133//130 98//130
f 57//131 56//131 25//131
f 25//132 113//132 69//132
f 69//133 75//133 25//133
f 25//134 116//134 57//134
f 26//135 109//135 57//135
f 57//136 76//136 26//136
f 76//137 87//137 26//137
f 87//138 58//138 26//138
f 27//139 131//139 97//139
f 27//140 135//140 88//140
f 88//141 96//141 29//141
f 30//142 120//142 87//142
f 30//137 125//137 103//137
f 31//143 135//143 95//143
f 95//144 60//144 31//144
f 91//145 58//145 32//145
f 32//146 120//146 95//146
f 95//147 97//147 32//147
f 97//148 91//148 32//148
f 33//149 109//149 91//149
f 33//150 131//150 98//150
f 98//151 93//151 33//151
f 93//152 56//152 33//152
f 55//153 94//153 34//153
f 34//154 134//154 105//154
f 35//155 107//155 45//155
f 45//156 61//156 35//156
f 61//157 99//157 35//157
f 35//158 130//158 90//158
f 43//159 90//159 36//159
f 90//160 100//160 36//160
f 100//161 94//161 36//161
f 36//162 119//162 43//162
f 89//163 41//163 37//163
f 37//164 113//164 93//164
f 37//165 133//165 101//165
f 101//166 89//166 37//166
f 39//167 89//167 38//167
f 89//168 102//168 38//168
f 38//169 132//169 61//169
f 38//170 110//170 39//170
f 29//43 105//43 23//43
f 31//43 105//43 96//43
f 60//43 34//43 31//43
f 60//43 22//43 55//43
f 103//43 22//43 30//43
f 103//43 21//43 77//43
f 20//43 54//43 21//43
f 1//171 102//171 129//171
f 92//172 132//172 102//172
f 2//173 40//173 106//173
f 39//174 110//174 62//174
f 2//175 62//175 121//175
f 63//176 111//176 40//176
f 3//177 41//177 106//177
f 40//178 111//178 64//178
f 3//179 64//179 122//179
f 69//180 113//180 41//180
f 4//181 42//181 129//181
f 101//182 133//182 70//182
f 5//183 100//183 130//183
f 5//184 86//184 134//184
f 6//185 44//185 107//185
f 43//186 119//186 85//186
f 6//103 85//103 126//103
f 66//187 112//187 44//187
f 45//188 107//188 44//188
f 7//189 44//189 112//189
f 67//190 121//190 62//190
f 7//191 62//191 110//191
f 46//192 130//192 99//192
f 8//193 99//193 132//193
f 47//194 108//194 50//194
f 50//112 118//112 83//112
f 83//113 125//113 76//113
f 9//195 76//195 116//195
f 10//196 48//196 108//196
f 47//197 116//197 75//197
f 10//198 75//198 122//198
f 64//199 111//199 48//199
f 11//200 49//200 108//200
f 48//201 111//201 63//201
f 11//202 63//202 121//202
f 67//203 112//203 49//203
f 50//204 108//204 49//204
f 12//205 49//205 112//205
f 66//125 126//125 84//125
f 84//126 118//126 50//126
f 103//113 125//113 83//113
f 83//112 118//112 54//112
f 54//126 118//126 84//126
f 84//125 126//125 77//125
f 22//103 77//103 126//103
f 22//206 85//206 119//206
f 105//207 134//207 86//207
f 98//208 131//208 59//208
f 24//209 70//209 133//209
f 57//210 109//210 56//210
f 25//211 56//211 113//211
f 69//212 122//212 75//212
f 25//213 75//213 116//213
f 26//214 58//214 109//214
f 57//215 116//215 76//215
f 76//137 125//137 87//137
f 87//216 120//216 58//216
f 27//217 59//217 131//217
f 27//218 97//218 135//218
f 88//219 135//219 96//219
f 30//220 60//220 120//220
f 30//137 87//137 125//137
f 31//221 96//221 135//221
f 95//222 120//222 60//222
f 91//223 109//223 58//223
f 32//224 58//224 120//224
f 95//225 135//225 97//225
f 97//226 131//226 91//226
f 33//227 56//227 109//227
f 33//228 91//228 131//228
f 98//229 133//229 93//229
f 93//230 113//230 56//230
f 55//231 119//231 94//231
f 34//232 94//232 134//232
f 35//233 90//233 107//233
f 45//234 110//234 61//234
f 61//235 132//235 99//235
f 35//236 99//236 130//236
f 43//237 107//237 90//237
f 90//238 130//238 100//238
f 100//239 134//239 94//239
f 36//240 94//240 119//240
f 89//241 106//241 41//241
f 37//242 41//242 113//242
f 37//243 93//243 133//243
f 101//244 129//244 89//244
f 39//245 106//245 89//245
f 89//246 129//246 102//246
f 38//247 102//247 132//247
f 38//248 61//248 110//248
f 29//43 96//43 105//43
f 31//43 34//43 105//43
f 60//43 55//43 34//43
f 60//43 30//43 22//43
f 103//43 77//43 22//43
f 103//43 20//43 21//43
