# Blender v3.6.4 OBJ File: 'Level2.blend'
# www.blender.org
mtllib Rock2.mtl
o Rock2
v 0.361134 0.095778 0.782829
v -0.366829 0.018948 0.604805
v -0.519006 0.053294 -0.400728
v -0.161412 -0.050489 -0.883752
v -0.117648 0.629859 0.855010
v 0.794104 0.482335 0.409781
v 0.652935 0.023679 0.154705
v 0.446647 0.018474 -0.664218
v 0.801126 0.441825 -0.231296
v 0.117752 0.350955 0.994785
v -0.617506 0.353783 0.485692
v -0.516983 0.293751 -0.786831
v 0.446202 0.260076 -0.754285
v -0.098415 0.305561 -1.049410
v 0.452908 0.685794 0.681908
v 0.108848 0.983702 0.089877
v -0.187501 0.932766 0.379732
v -0.503682 0.732355 -0.333627
v 0.148436 0.688483 -0.669250
vn 0.0268 -0.9984 0.0503
vn 0.7783 -0.4707 0.4156
vn -0.1020 -0.6914 0.7153
vn -0.8135 -0.5722 0.1036
vn -0.6943 -0.6093 -0.3831
vn 0.6546 -0.0036 0.7560
vn -0.5646 -0.1329 0.8146
vn -0.9913 -0.1091 -0.0732
vn -0.5027 -0.2900 -0.8144
vn 0.8418 -0.1872 -0.5063
vn 0.0772 0.8459 0.5278
vn -0.6664 0.5805 0.4679
vn 0.6031 0.7964 -0.0437
vn 0.5026 0.8143 -0.2904
vn -0.1259 0.9223 -0.3653
vn -0.2567 0.7592 -0.5981
vn -0.4122 0.6607 -0.6273
vn -0.2948 0.9460 -0.1351
vn -0.7753 0.6075 0.1730
vn 0.1872 0.9169 0.3526
vn 0.5611 0.8231 0.0881
vn 0.6007 0.5354 -0.5937
vn -0.9897 0.1165 -0.0837
vn -0.5681 -0.0685 0.8201
vn 0.1890 0.5628 0.8047
vn 0.6456 0.0648 0.7609
vn 0.4515 0.4650 -0.7615
vn 0.4319 -0.3144 -0.8454
vn 0.3483 -0.4454 -0.8248
vn 0.9505 -0.3092 0.0300
vn 0.8445 -0.4928 -0.2096
vn 0.1213 -0.9923 -0.0242
vn -0.2690 -0.9631 0.0078
vn 0.0687 -0.9870 0.1452
usemtl Material.022
s 1
f 7//1 2//1 4//1
f 1//2 7//2 6//2
f 2//3 1//3 10//3
f 3//4 2//4 11//4
f 4//5 3//5 12//5
f 1//6 6//6 10//6
f 2//7 10//7 11//7
f 3//8 11//8 12//8
f 4//9 12//9 14//9
f 8//10 13//10 9//10
f 5//11 15//11 17//11
f 11//12 5//12 17//12
f 6//13 9//13 16//13
f 16//14 9//14 19//14
f 19//15 18//15 16//15
f 19//16 14//16 18//16
f 14//17 12//17 18//17
f 18//18 17//18 16//18
f 18//19 11//19 17//19
f 17//20 15//20 16//20
f 15//21 6//21 16//21
f 13//22 19//22 9//22
f 12//23 11//23 18//23
f 11//24 10//24 5//24
f 10//25 15//25 5//25
f 10//26 6//26 15//26
f 13//27 14//27 19//27
f 13//28 8//28 14//28
f 8//29 4//29 14//29
f 6//30 7//30 9//30
f 7//31 8//31 9//31
f 7//32 4//32 8//32
f 4//33 2//33 3//33
f 2//34 7//34 1//34
